<svg width="13" height="7" viewBox="0 0 13 7" fill="none" xmlns="http://www.w3.org/2000/svg">
<path d="M0.238075 6.77227C0.390561 6.91808 0.597347 7 0.812962 7C1.02858 7 1.23536 6.91808 1.38785 6.77227L6.50491 1.87748L11.622 6.77227C11.7753 6.91395 11.9807 6.99235 12.1939 6.99058C12.4071 6.98881 12.6111 6.907 12.7618 6.76279C12.9126 6.61858 12.9981 6.42349 13 6.21955C13.0018 6.01561 12.9199 5.81913 12.7717 5.67244L7.0798 0.227734C6.92731 0.081916 6.72052 0 6.50491 0C6.28929 0 6.08251 0.081916 5.93002 0.227734L0.238075 5.67244C0.0856358 5.8183 0 6.0161 0 6.22235C0 6.4286 0.0856358 6.6264 0.238075 6.77227Z" fill="#312921"/>
</svg>
