<svg width="12" height="14" viewBox="0 0 12 14" fill="none" xmlns="http://www.w3.org/2000/svg">
<path d="M4.5625 11H0.5C0.367392 11 0.240215 11.0527 0.146447 11.1464C0.0526785 11.2402 0 11.3674 0 11.5C0 11.6326 0.0526785 11.7598 0.146447 11.8535C0.240215 11.9473 0.367392 12 0.5 12H4.5625C4.67265 12.4302 4.92285 12.8115 5.27365 13.0838C5.62446 13.3561 6.05591 13.5039 6.5 13.5039C6.94409 13.5039 7.37554 13.3561 7.72635 13.0838C8.07715 12.8115 8.32735 12.4302 8.4375 12H11.5C11.6326 12 11.7598 11.9473 11.8536 11.8535C11.9473 11.7598 12 11.6326 12 11.5C12 11.3674 11.9473 11.2402 11.8536 11.1464C11.7598 11.0527 11.6326 11 11.5 11H8.4375C8.32735 10.5698 8.07715 10.1885 7.72635 9.91616C7.37554 9.64386 6.94409 9.49606 6.5 9.49606C6.05591 9.49606 5.62446 9.64386 5.27365 9.91616C4.92285 10.1885 4.67265 10.5698 4.5625 11ZM7.5 11.5C7.5 11.6978 7.44135 11.8911 7.33147 12.0556C7.22159 12.22 7.06541 12.3482 6.88268 12.4239C6.69996 12.4996 6.49889 12.5194 6.30491 12.4808C6.11093 12.4422 5.93275 12.3469 5.79289 12.2071C5.65304 12.0672 5.5578 11.8891 5.51921 11.6951C5.48063 11.5011 5.50043 11.3 5.57612 11.1173C5.65181 10.9346 5.77998 10.7784 5.94443 10.6685C6.10888 10.5586 6.30222 10.5 6.5 10.5C6.76522 10.5 7.01957 10.6053 7.20711 10.7929C7.39464 10.9804 7.5 11.2348 7.5 11.5ZM1.5625 6.49998H0.5C0.367392 6.49998 0.240215 6.55266 0.146447 6.64643C0.0526785 6.7402 0 6.86738 0 6.99998C0 7.13259 0.0526785 7.25977 0.146447 7.35354C0.240215 7.44731 0.367392 7.49998 0.5 7.49998H1.5625C1.67265 7.93019 1.92285 8.3115 2.27365 8.5838C2.62446 8.85611 3.05591 9.00391 3.5 9.00391C3.94409 9.00391 4.37554 8.85611 4.72635 8.5838C5.07715 8.3115 5.32735 7.93019 5.4375 7.49998L11.5 7.49998C11.6326 7.49998 11.7598 7.44731 11.8536 7.35354C11.9473 7.25977 12 7.13259 12 6.99998C12 6.86738 11.9473 6.7402 11.8536 6.64643C11.7598 6.55266 11.6326 6.49998 11.5 6.49998L5.4375 6.49998C5.32735 6.06978 5.07715 5.68847 4.72635 5.41617C4.37554 5.14386 3.94409 4.99606 3.5 4.99606C3.05591 4.99606 2.62446 5.14386 2.27365 5.41617C1.92285 5.68847 1.67265 6.06978 1.5625 6.49998ZM4.5 6.99998C4.5 7.19777 4.44135 7.39111 4.33147 7.55555C4.22159 7.72 4.06541 7.84818 3.88268 7.92386C3.69996 7.99955 3.49889 8.01936 3.30491 7.98077C3.11093 7.94218 2.93275 7.84694 2.79289 7.70709C2.65304 7.56724 2.5578 7.38906 2.51921 7.19508C2.48063 7.00109 2.50043 6.80003 2.57612 6.6173C2.65181 6.43458 2.77998 6.2784 2.94443 6.16852C3.10888 6.05863 3.30222 5.99998 3.5 5.99998C3.76522 5.99998 4.01957 6.10534 4.20711 6.29288C4.39464 6.48041 4.5 6.73477 4.5 6.99998ZM8.5 0.499985C8.0566 0.500404 7.62586 0.647882 7.27525 0.919321C6.92464 1.19076 6.67397 1.57082 6.5625 1.99998H0.5C0.367392 1.99998 0.240215 2.05266 0.146447 2.14643C0.0526785 2.2402 0 2.36738 0 2.49998C0 2.63259 0.0526785 2.75977 0.146447 2.85354C0.240215 2.94731 0.367392 2.99998 0.5 2.99998H6.5625C6.67265 3.43019 6.92285 3.8115 7.27365 4.0838C7.62446 4.3561 8.05591 4.50391 8.5 4.50391C8.94409 4.50391 9.37554 4.3561 9.72635 4.0838C10.0771 3.8115 10.3273 3.43019 10.4375 2.99998H11.5C11.6326 2.99998 11.7598 2.94731 11.8536 2.85354C11.9473 2.75977 12 2.63259 12 2.49998C12 2.36738 11.9473 2.2402 11.8536 2.14643C11.7598 2.05266 11.6326 1.99998 11.5 1.99998H10.4375C10.326 1.57082 10.0754 1.19076 9.72475 0.919321C9.37414 0.647882 8.9434 0.500404 8.5 0.499985ZM9.5 2.49998C9.5 2.69777 9.44135 2.89111 9.33147 3.05556C9.22159 3.22 9.06541 3.34818 8.88268 3.42386C8.69996 3.49955 8.49889 3.51936 8.30491 3.48077C8.11093 3.44218 7.93275 3.34694 7.79289 3.20709C7.65304 3.06724 7.5578 2.88906 7.51921 2.69508C7.48063 2.50109 7.50043 2.30003 7.57612 2.1173C7.65181 1.93458 7.77998 1.7784 7.94443 1.66852C8.10888 1.55863 8.30222 1.49998 8.5 1.49998C8.76522 1.49998 9.01957 1.60534 9.20711 1.79288C9.39464 1.98041 9.5 2.23477 9.5 2.49998Z" fill="black"/>
</svg>
