<svg width="28" height="28" viewBox="0 0 28 28" fill="none" xmlns="http://www.w3.org/2000/svg">
    <path d="M26.32 14.2916C26.32 13.3816 26.2383 12.5066 26.0867 11.6666H14V16.6308H20.9067C20.6092 18.235 19.705 19.5941 18.3458 20.5041V23.7241H22.4933C24.92 21.49 26.32 18.2 26.32 14.2916Z" fill="#4285F4"/>
    <path d="M14.0001 26.8334C17.4651 26.8334 20.3701 25.6842 22.4934 23.7242L18.3459 20.5042C17.1967 21.2742 15.7267 21.7292 14.0001 21.7292C10.6576 21.7292 7.8284 19.4717 6.81924 16.4384H2.53174V19.7634C4.64341 23.9575 8.98341 26.8334 14.0001 26.8334Z" fill="#34A853"/>
    <path d="M6.81925 16.4384C6.56258 15.6684 6.41675 14.8459 6.41675 14C6.41675 13.1542 6.56258 12.3317 6.81925 11.5617V8.23669H2.53175C1.63341 10.025 1.16596 11.9987 1.16675 14C1.16675 16.0709 1.66258 18.0309 2.53175 19.7634L6.81925 16.4384Z" fill="#FBBC05"/>
    <path d="M14.0001 6.27079C15.8842 6.27079 17.5759 6.91829 18.9059 8.18996L22.5867 4.50913C20.3642 2.43829 17.4592 1.16663 14.0001 1.16663C8.9834 1.16663 4.6434 4.04246 2.53174 8.23663L6.81924 11.5616C7.8284 8.52829 10.6576 6.27079 14.0001 6.27079Z" fill="#EA4335"/>
</svg>
