<svg width="20" height="18" viewBox="0 0 20 18" fill="none" xmlns="http://www.w3.org/2000/svg">
<path d="M10 18L8.55 16.7248C6.86667 15.2371 5.475 13.9537 4.375 12.8747C3.275 11.7956 2.4 10.8268 1.75 9.96817C1.1 9.11019 0.646 8.32153 0.388 7.60218C0.13 6.88283 0.000666667 6.14714 0 5.39509C0 3.85831 0.525 2.57493 1.575 1.54496C2.625 0.514986 3.93333 0 5.5 0C6.36667 0 7.19167 0.179836 7.975 0.539509C8.75833 0.899182 9.43333 1.40599 10 2.05995C10.5667 1.40599 11.2417 0.899182 12.025 0.539509C12.8083 0.179836 13.6333 0 14.5 0C16.0667 0 17.375 0.514986 18.425 1.54496C19.475 2.57493 20 3.85831 20 5.39509C20 6.14714 19.8707 6.88283 19.612 7.60218C19.3533 8.32153 18.8993 9.11019 18.25 9.96817C17.6 10.8268 16.725 11.7956 15.625 12.8747C14.525 13.9537 13.1333 15.2371 11.45 16.7248L10 18ZM10 15.3515C11.6 13.9455 12.9167 12.7396 13.95 11.7338C14.9833 10.7281 15.8 9.85373 16.4 9.11084C17 8.36665 17.4167 7.7042 17.65 7.12349C17.8833 6.54278 18 5.96665 18 5.39509C18 4.41417 17.6667 3.59673 17 2.94278C16.3333 2.28883 15.5 1.96185 14.5 1.96185C13.7167 1.96185 12.9917 2.17831 12.325 2.61123C11.6583 3.04414 11.2 3.59608 10.95 4.26703H9.05C8.8 3.59673 8.34167 3.0448 7.675 2.61123C7.00833 2.17766 6.28333 1.9612 5.5 1.96185C4.5 1.96185 3.66667 2.28883 3 2.94278C2.33333 3.59673 2 4.41417 2 5.39509C2 5.9673 2.11667 6.54376 2.35 7.12447C2.58333 7.70518 3 8.3673 3.6 9.11084C4.2 9.85439 5.01667 10.729 6.05 11.7348C7.08333 12.7406 8.4 13.9462 10 15.3515Z" fill="#312921"/>
</svg>
